nColumns=19
nRows=82
DataType=double
version=3
OpenSimVersion=4.1
endheader
time	ground_force_1_vx	ground_force_1_vy	ground_force_1_vz	ground_force_1_px	ground_force_1_py	ground_force_1_pz	ground_force_1_mx	ground_force_1_my	ground_force_1_mz	ground_force_2_vx	ground_force_2_vy	ground_force_2_vz	ground_force_2_px	ground_force_2_py	ground_force_2_pz	ground_force_2_mx	ground_force_2_my	ground_force_2_mz
0	-64.148	373.359	14.2757	0.181279	0.006	-0.153946	0	0.453523	0	0	0	0	0.727536	0	-0.209451	0	0	0
0.01	-70.7251	398.903	11.8011	0.184998	0.006	-0.153074	0	0.41372	0	0	0	0	0.727536	0	-0.209451	0	0	0
0.02	-77.3363	425.146	8.70022	0.189441	0.006	-0.151957	0	0.387249	0	0	0	0	0.727536	0	-0.209451	0	0	0
0.03	-83.637	451.012	4.99759	0.193888	0.006	-0.150755	0	0.382141	0	0	0	0	0.727536	0	-0.209451	0	0	0
0.04	-89.3005	475.583	0.805034	0.198282	0.006	-0.149485	0	0.406316	0	0	0	0	0.727536	0	-0.209451	0	0	0
0.05	-94.0699	498.231	-3.69908	0.202581	0.006	-0.148169	0	0.464807	0	0	0	0	0.727536	0	-0.209451	0	0	0
0.06	-97.7815	518.632	-8.30067	0.20676	0.006	-0.146831	0	0.558109	0	0	0	0	0.727536	0	-0.209451	0	0	0
0.07	-100.346	536.666	-12.7704	0.210794	0.006	-0.145497	0	0.682609	0	0	0	0	0.727536	0	-0.209451	0	0	0
0.08	-101.731	552.288	-16.8854	0.214668	0.006	-0.144189	0	0.830882	0	0	0	0	0.727536	0	-0.209451	0	0	0
0.09	-101.955	565.472	-20.4602	0.218368	0.006	-0.142928	0	0.991903	0	0	0	0	0.727536	0	-0.209451	0	0	0
0.1	-101.079	576.197	-23.3686	0.221892	0.006	-0.141727	0	1.15253	0	0	0	0	0.727536	0	-0.209451	0	0	0
0.11	-99.2038	584.453	-25.5536	0.225248	0.006	-0.140592	0	1.29957	0	0	0	0	0.727536	0	-0.209451	0	0	0
0.12	-96.4589	590.257	-27.0263	0.228452	0.006	-0.139522	0	1.42173	0	0	0	0	0.727536	0	-0.209451	0	0	0
0.13	-92.9977	593.673	-27.853	0.231525	0.006	-0.138512	0	1.51091	0	0	0	0	0.727536	0	-0.209451	0	0	0
0.14	-88.9863	594.822	-28.1332	0.234493	0.006	-0.137553	0	1.5628	0	0	0	0	0.727536	0	-0.209451	0	0	0
0.15	-84.5901	593.893	-27.9767	0.237384	0.006	-0.136637	0	1.57655	0	0	0	0	0.727536	0	-0.209451	0	0	0
0.16	-79.9643	591.147	-27.4853	0.24022	0.006	-0.135756	0	1.55385	0	0	0	0	0.727536	0	-0.209451	0	0	0
0.17	-75.2468	586.914	-26.7439	0.243024	0.006	-0.134909	0	1.49777	0	0	0	0	0.727536	0	-0.209451	0	0	0
0.18	-70.5538	581.575	-25.8195	0.245807	0.006	-0.134094	0	1.41189	0	0	0	0	0.727536	0	-0.209451	0	0	0
0.19	-65.9767	575.532	-24.7658	0.248577	0.006	-0.133317	0	1.29983	0	0	0	0	0.727536	0	-0.209451	0	0	0
0.2	-61.58	569.181	-23.6291	0.251334	0.006	-0.132582	0	1.16493	0	0	0	0	0.727536	0	-0.209451	0	0	0
0.21	-57.4018	562.884	-22.4511	0.254069	0.006	-0.131896	0	1.01028	0	0	0	0	0.727536	0	-0.209451	0	0	0
0.22	-53.4554	556.949	-21.2707	0.256769	0.006	-0.131267	0	0.838803	0	0	0	0	0.727536	0	-0.209451	0	0	0
0.23	-49.732	551.616	-20.1237	0.259417	0.006	-0.1307	0	0.653406	0	0	0	0	0.727536	0	-0.209451	0	0	0
0.24	-46.2054	547.062	-19.0425	0.261994	0.006	-0.130202	0	0.456877	0	0	0	0	0.727536	0	-0.209451	0	0	0
0.25	-42.836	543.391	-18.0556	0.264481	0.006	-0.129775	0	0.251906	0	0	0	0	0.727536	0	-0.209451	0	0	0
0.26	-39.5758	540.652	-17.1875	0.26686	0.006	-0.129422	0	0.041008	0	0	0	0	0.727536	0	-0.209451	0	0	0
0.27	-36.3725	538.838	-16.4569	0.26912	0.006	-0.129144	0	-0.173641	0	0	0	0	0.727536	0	-0.209451	0	0	0
0.28	-33.1754	537.903	-15.8754	0.271254	0.006	-0.12894	0	-0.390404	0	0	0	0	0.727536	0	-0.209451	0	0	0
0.29	-29.9399	537.763	-15.4455	0.273262	0.006	-0.128807	0	-0.608282	0	0	0	0	0.727536	0	-0.209451	0	0	0
0.3	-26.6298	538.315	-15.1601	0.275153	0.006	-0.128744	0	-0.826911	0	0	0	0	0.727536	0	-0.209451	0	0	0
0.31	-23.2188	539.446	-15.005	0.276939	0.006	-0.12875	0	-1.04646	0	0	0	0	0.727536	0	-0.209451	0	0	0
0.32	-19.6904	541.055	-14.9635	0.278637	0.006	-0.128822	0	-1.26738	0	0	0	0	0.727536	0	-0.209451	0	0	0
0.33	-16.0368	543.061	-15.0187	0.280268	0.006	-0.12896	0	-1.48998	0	0	0	0	0.727536	0	-0.209451	0	0	0
0.34	-12.2575	545.416	-15.1557	0.281853	0.006	-0.129164	0	-1.71422	0	0	0	0	0.727536	0	-0.209451	0	0	0
0.35	-8.35638	548.098	-15.3631	0.283414	0.006	-0.129436	0	-1.93975	0	0	0	0	0.727536	0	-0.209451	0	0	0
0.36	-4.33949	551.114	-15.6332	0.284972	0.006	-0.129777	0	-2.16587	0	0	0	0	0.727536	0	-0.209451	0	0	0
0.37	-0.211987	554.481	-15.9624	0.286548	0.006	-0.130189	0	-2.39158	0	0	0	0	0.727536	0	-0.209451	0	0	0
0.38	4.02385	558.218	-16.3514	0.28816	0.006	-0.130674	0	-2.61558	0	0	0	0	0.727536	0	-0.209451	0	0	0
0.39	8.36946	562.332	-16.8026	0.289826	0.006	-0.131234	0	-2.83645	0	0	0	0	0.727536	0	-0.209451	0	0	0
0.4	12.8297	566.808	-17.3158	0.29156	0.006	-0.13187	0	-3.05264	0	0	0	0	0.727536	0	-0.209451	0	0	0
0.41	17.4113	571.605	-17.8831	0.293374	0.006	-0.13258	0	-3.26267	0	0	0	0	0.727536	0	-0.209451	0	0	0
0.42	22.1198	576.66	-18.4847	0.295276	0.006	-0.133364	0	-3.4652	0	0	0	0	0.727536	0	-0.209451	0	0	0
0.43	26.9567	581.899	-19.0877	0.29727	0.006	-0.134219	0	-3.65927	0	0	0	0	0.727536	0	-0.209451	0	0	0
0.44	31.9174	587.243	-19.6486	0.299356	0.006	-0.13514	0	-3.84417	0	0	0	0	0.727536	0	-0.209451	0	0	0
0.45	36.9912	592.618	-20.1177	0.301529	0.006	-0.136116	0	-4.01921	0	0	0	0	0.727536	0	-0.209451	0	0	0
0.46	42.1635	597.953	-20.4472	0.303778	0.006	-0.137137	0	-4.18306	0	0	0	0	0.727536	0	-0.209451	0	0	0
0.47	47.4175	603.173	-20.5996	0.306089	0.006	-0.138183	0	-4.33314	0	0	0	0	0.727536	0	-0.209451	0	0	0
0.48	52.7353	608.186	-20.5545	0.308443	0.006	-0.139236	0	-4.46538	0	0	0	0	0.727536	0	-0.209451	0	0	0
0.49	58.0966	612.857	-20.3087	0.310817	0.006	-0.140271	0	-4.57442	0	0	0	0	0.727536	0	-0.209451	0	0	0
0.5	63.4736	616.995	-19.8705	0.313189	0.006	-0.141269	0	-4.65434	0	0	0	0	0.727536	0	-0.209451	0	0	0
0.51	68.8255	620.335	-19.2499	0.315539	0.006	-0.142211	0	-4.6997	0	0	0	0	0.727536	0	-0.209451	0	0	0
0.52	74.0931	622.544	-18.4483	0.317851	0.006	-0.143088	0	-4.70654	0	0	0	0	0.727536	0	-0.209451	0	0	0
0.53	79.1953	623.237	-17.4526	0.320115	0.006	-0.143892	0	-4.67309	0	0	0	0	0.727536	0	-0.209451	0	0	0
0.54	84.0291	621.987	-16.2374	0.322327	0.006	-0.144623	0	-4.59983	0	0	0	0	0.727536	0	-0.209451	0	0	0
0.55	88.4723	618.344	-14.7734	0.324492	0.006	-0.145283	0	-4.48909	0	-1.3393	30.9218	-4.77085	0.751237	0.006	-0.21949	0	0.169214	0
0.56	92.3865	611.858	-13.0381	0.326615	0.006	-0.145876	0	-4.34431	0	-3.42113	49.3233	-5.49046	0.776016	0.006	-0.229387	0	0.174338	0
0.57	95.6227	602.093	-11.0251	0.328708	0.006	-0.146407	0	-4.16929	0	-6.26195	71.6297	-6.22612	0.790533	0.006	-0.234613	0	0.148052	0
0.58	98.0283	588.661	-8.75063	0.330785	0.006	-0.146881	0	-3.96776	0	-9.97053	97.8266	-6.92933	0.800466	0.006	-0.237747	0	0.106624	0
0.59	99.4576	571.254	-6.2569	0.332864	0.006	-0.147302	0	-3.7433	0	-14.617	127.658	-7.53152	0.808037	0.006	-0.239788	0	0.058492	0
0.6	99.7842	549.674	-3.61014	0.334964	0.006	-0.147674	0	-3.49948	0	-20.164	160.685	-7.93934	0.814283	0.006	-0.241213	0	0.010386	0
0.61	98.9125	523.875	-0.896904	0.337106	0.006	-0.148001	0	-3.24005	0	-26.4742	196.273	-8.03791	0.819743	0.006	-0.242276	0	-0.031589	0
0.62	96.7886	493.985	1.78253	0.339312	0.006	-0.148287	0	-2.969	0	-33.3545	233.558	-7.70298	0.824723	0.006	-0.243122	0	-0.062058	0
0.63	93.4079	460.325	4.32296	0.341603	0.006	-0.148535	0	-2.69067	0	-40.5627	271.497	-6.82011	0.829409	0.006	-0.243837	0	-0.077357	0
0.64	88.8219	423.416	6.62259	0.344004	0.006	-0.148747	0	-2.40979	0	-47.8211	308.995	-5.31327	0.833921	0.006	-0.244469	0	-0.077619	0
0.65	83.141	383.969	8.5895	0.346541	0.006	-0.148926	0	-2.13135	0	-54.8562	345.071	-3.17348	0.838335	0.006	-0.245044	0	-0.068144	0
0.66	76.5318	342.851	10.1472	0.349241	0.006	-0.149075	0	-1.86009	0	-61.4301	379	-0.468131	0.842703	0.006	-0.24557	0	-0.058083	0
0.67	69.2092	301.03	11.2404	0.352136	0.006	-0.14919	0	-1.60008	0	-67.3596	410.401	2.6761	0.847055	0.006	-0.246045	0	-0.057117	0
0.68	61.4188	259.504	11.8416	0.355264	0.006	-0.149265	0	-1.35464	0	-72.526	439.226	6.09741	0.851409	0.006	-0.246461	0	-0.073181	0
0.69	53.4144	219.235	11.9574	0.358683	0.006	-0.149286	0	-1.12663	0	-76.8638	465.656	9.60798	0.855762	0.006	-0.246803	0	-0.11198	0
0.7	45.4391	181.088	11.6309	0.362489	0.006	-0.149236	0	-0.918745	0	-80.3421	489.947	12.9999	0.860098	0.006	-0.247054	0	-0.176392	0
0.71	37.7118	145.788	10.9372	0.366841	0.006	-0.149084	0	-0.733699	0	-82.9531	512.318	16.065	0.864394	0.006	-0.247198	0	-0.265214	0
0.72	30.4243	113.89	9.97048	0.372017	0.006	-0.148784	0	-0.574103	0	-84.7132	532.912	18.6253	0.868621	0.006	-0.247227	0	-0.372525	0
0.73	23.7373	85.7614	8.82758	0.378522	0.006	-0.148249	0	-0.442296	0	-85.6598	551.78	20.554	0.872757	0.006	-0.247139	0	-0.488393	0
0.74	17.7748	61.5769	7.59669	0.387357	0.006	-0.147309	0	-0.340711	0	-85.8469	568.876	21.7867	0.876786	0.006	-0.246942	0	-0.600399	0
0.75	12.6172	41.3352	6.35254	0.400768	0.006	-0.145573	0	-0.273941	0	-85.3437	584.074	22.3249	0.880703	0.006	-0.246654	0	-0.695402	0
0.76	8.29643	24.8838	5.15515	0.424988	0.006	-0.141943	0	-0.255932	0	-84.2311	597.195	22.2321	0.884515	0.006	-0.246296	0	-0.761391	0
0.77	0	0	0	0.451665	0	-0.140699	0	0	0	-82.5994	608.034	21.6203	0.888241	0.006	-0.245895	0	-0.788839	0
0.78	0	0	0	0.474366	0	-0.141095	0	0	0	-80.5431	616.412	20.6296	0.891905	0.006	-0.245478	0	-0.771599	0
0.79	0	0	0	0.497066	0	-0.141491	0	0	0	-78.1562	622.212	19.4052	0.895539	0.006	-0.245067	0	-0.707345	0
0.8	0	0	0	0.519767	0	-0.141887	0	0	0	-75.5284	625.42	18.0774	0.899175	0.006	-0.244683	0	-0.597243	0
0.81	0	0	0	0.542468	0	-0.142283	0	0	0	-72.7428	626.141	16.7478	0.902841	0.006	-0.244342	0	-0.445152	0
